<mxfile host="app.diagrams.net" agent="Mozilla/5.0 (Windows NT 10.0; Win64; x64) AppleWebKit/537.36 (KHTML, like Gecko) Chrome/132.0.0.0 Safari/537.36 Edg/132.0.0.0" version="26.0.6">
  <diagram name="Page-1" id="BKeHD2xn3V6bhj_7RTdP">
    <mxGraphModel dx="886" dy="478" grid="1" gridSize="10" guides="1" tooltips="1" connect="1" arrows="1" fold="1" page="1" pageScale="1" pageWidth="850" pageHeight="1100" math="0" shadow="0">
      <root>
        <mxCell id="0" />
        <mxCell id="1" parent="0" />
        <mxCell id="-qDgTzcRafZjgrB2FQzl-1" value="" style="ellipse;whiteSpace=wrap;html=1;" vertex="1" parent="1">
          <mxGeometry x="260" y="90" width="70" height="40" as="geometry" />
        </mxCell>
        <mxCell id="-qDgTzcRafZjgrB2FQzl-2" value="University BookStore System" style="text;html=1;align=center;verticalAlign=middle;whiteSpace=wrap;rounded=0;" vertex="1" parent="1">
          <mxGeometry x="345" y="10" width="160" height="30" as="geometry" />
        </mxCell>
        <mxCell id="-qDgTzcRafZjgrB2FQzl-3" value="" style="whiteSpace=wrap;html=1;aspect=fixed;" vertex="1" parent="1">
          <mxGeometry x="190" y="60" width="470" height="470" as="geometry" />
        </mxCell>
        <mxCell id="-qDgTzcRafZjgrB2FQzl-4" value="" style="ellipse;whiteSpace=wrap;html=1;" vertex="1" parent="1">
          <mxGeometry x="235" y="100" width="110" height="60" as="geometry" />
        </mxCell>
        <mxCell id="-qDgTzcRafZjgrB2FQzl-5" value="" style="ellipse;whiteSpace=wrap;html=1;" vertex="1" parent="1">
          <mxGeometry x="380" y="150" width="110" height="60" as="geometry" />
        </mxCell>
        <mxCell id="-qDgTzcRafZjgrB2FQzl-6" value="" style="ellipse;whiteSpace=wrap;html=1;" vertex="1" parent="1">
          <mxGeometry x="255" y="220" width="110" height="60" as="geometry" />
        </mxCell>
        <mxCell id="-qDgTzcRafZjgrB2FQzl-7" value="" style="ellipse;whiteSpace=wrap;html=1;" vertex="1" parent="1">
          <mxGeometry x="370" y="300" width="110" height="60" as="geometry" />
        </mxCell>
        <mxCell id="-qDgTzcRafZjgrB2FQzl-8" value="" style="ellipse;whiteSpace=wrap;html=1;" vertex="1" parent="1">
          <mxGeometry x="505" y="210" width="110" height="60" as="geometry" />
        </mxCell>
        <mxCell id="-qDgTzcRafZjgrB2FQzl-9" value="" style="ellipse;whiteSpace=wrap;html=1;" vertex="1" parent="1">
          <mxGeometry x="250" y="380" width="110" height="60" as="geometry" />
        </mxCell>
        <mxCell id="-qDgTzcRafZjgrB2FQzl-10" value="" style="ellipse;whiteSpace=wrap;html=1;" vertex="1" parent="1">
          <mxGeometry x="505" y="360" width="110" height="60" as="geometry" />
        </mxCell>
        <mxCell id="-qDgTzcRafZjgrB2FQzl-11" value="" style="ellipse;whiteSpace=wrap;html=1;" vertex="1" parent="1">
          <mxGeometry x="380" y="440" width="110" height="60" as="geometry" />
        </mxCell>
        <mxCell id="-qDgTzcRafZjgrB2FQzl-12" value="" style="ellipse;whiteSpace=wrap;html=1;" vertex="1" parent="1">
          <mxGeometry x="520" y="90" width="110" height="60" as="geometry" />
        </mxCell>
      </root>
    </mxGraphModel>
  </diagram>
</mxfile>
